<svg width="150" height="75" xmlns="http://www.w3.org/2000/svg">
<rect width="100%" height="100%" fill="#0d1117" rx="4"/>
<rect x="0" y="0" width="12" height="12" fill="#0e4429" rx="2"/>
<rect x="0" y="15" width="12" height="12" fill="#161b22" rx="2"/>
<rect x="0" y="30" width="12" height="12" fill="#161b22" rx="2"/>
<rect x="0" y="45" width="12" height="12" fill="#39d353" rx="2"/>
<rect x="0" y="60" width="12" height="12" fill="#161b22" rx="2"/>
<rect x="15" y="0" width="12" height="12" fill="#161b22" rx="2"/>
<rect x="15" y="15" width="12" height="12" fill="#161b22" rx="2"/>
<rect x="15" y="30" width="12" height="12" fill="#39d353" rx="2"/>
<rect x="15" y="45" width="12" height="12" fill="#161b22" rx="2"/>
<rect x="15" y="60" width="12" height="12" fill="#161b22" rx="2"/>
<rect x="30" y="0" width="12" height="12" fill="#161b22" rx="2"/>
<rect x="30" y="15" width="12" height="12" fill="#39d353" rx="2"/>
<rect x="30" y="30" width="12" height="12" fill="#161b22" rx="2"/>
<rect x="30" y="45" width="12" height="12" fill="#161b22" rx="2"/>
<rect x="30" y="60" width="12" height="12" fill="#26a641" rx="2"/>
<rect x="45" y="0" width="12" height="12" fill="#39d353" rx="2"/>
<rect x="45" y="15" width="12" height="12" fill="#161b22" rx="2"/>
<rect x="45" y="30" width="12" height="12" fill="#161b22" rx="2"/>
<rect x="45" y="45" width="12" height="12" fill="#26a641" rx="2"/>
<rect x="45" y="60" width="12" height="12" fill="#161b22" rx="2"/>
<rect x="60" y="0" width="12" height="12" fill="#161b22" rx="2"/>
<rect x="60" y="15" width="12" height="12" fill="#161b22" rx="2"/>
<rect x="60" y="30" width="12" height="12" fill="#26a641" rx="2"/>
<rect x="60" y="45" width="12" height="12" fill="#161b22" rx="2"/>
<rect x="60" y="60" width="12" height="12" fill="#161b22" rx="2"/>
<rect x="75" y="0" width="12" height="12" fill="#161b22" rx="2"/>
<rect x="75" y="15" width="12" height="12" fill="#26a641" rx="2"/>
<rect x="75" y="30" width="12" height="12" fill="#161b22" rx="2"/>
<rect x="75" y="45" width="12" height="12" fill="#161b22" rx="2"/>
<rect x="75" y="60" width="12" height="12" fill="#006d32" rx="2"/>
<rect x="90" y="0" width="12" height="12" fill="#26a641" rx="2"/>
<rect x="90" y="15" width="12" height="12" fill="#161b22" rx="2"/>
<rect x="90" y="30" width="12" height="12" fill="#161b22" rx="2"/>
<rect x="90" y="45" width="12" height="12" fill="#006d32" rx="2"/>
<rect x="90" y="60" width="12" height="12" fill="#161b22" rx="2"/>
<rect x="105" y="0" width="12" height="12" fill="#161b22" rx="2"/>
<rect x="105" y="15" width="12" height="12" fill="#161b22" rx="2"/>
<rect x="105" y="30" width="12" height="12" fill="#006d32" rx="2"/>
<rect x="105" y="45" width="12" height="12" fill="#161b22" rx="2"/>
<rect x="105" y="60" width="12" height="12" fill="#161b22" rx="2"/>
<rect x="120" y="0" width="12" height="12" fill="#161b22" rx="2"/>
<rect x="120" y="15" width="12" height="12" fill="#006d32" rx="2"/>
<rect x="120" y="30" width="12" height="12" fill="#161b22" rx="2"/>
<rect x="120" y="45" width="12" height="12" fill="#161b22" rx="2"/>
<rect x="120" y="60" width="12" height="12" fill="#0e4429" rx="2"/>
<rect x="135" y="0" width="12" height="12" fill="#006d32" rx="2"/>
<rect x="135" y="15" width="12" height="12" fill="#161b22" rx="2"/>
<rect x="135" y="30" width="12" height="12" fill="#161b22" rx="2"/>
<rect x="135" y="45" width="12" height="12" fill="#0e4429" rx="2"/>
<rect x="135" y="60" width="12" height="12" fill="#161b22" rx="2"/>

    <rect width="12" height="12" fill="#3ddc84" rx="2">
        <animateMotion 
            path="M 0,0 15,0 30,0 30,15 15,15 0,15 0,30 15,30 30,30" 
            dur="4s" 
            repeatCount="indefinite" />
    </rect>
    
</svg>
